<?xml version="1.0" encoding="UTF-8"?>
<svg id="Layer_2" data-name="Layer 2" xmlns="http://www.w3.org/2000/svg" viewBox="0 0 100 100">
  <defs>
    <style>
      .cls-1 {
        fill: #f2ece6;
      }
    </style>
  </defs>
  <g id="Layer_1-2" data-name="Layer 1">
    <g>
      <path class="cls-1" d="M55.03,81.06c-.06,3.64-.02,7.18.41,10.67.37,3.01.81,5.69,1.37,8.27h-11.49c-.41-2.19-.75-4.48-1.06-6.92-.78-6.34-.52-12.62-.28-18.69.12-2.99.23-5.83.23-8.69l10.02-3.55,18.05,22.28-8.76,7.09-8.49-10.47Z"/>
      <path class="cls-1" d="M81.06,44.97c3.64.06,7.18.02,10.67-.41,3.01-.37,5.69-.81,8.27-1.37v11.49c-2.19.41-4.48.75-6.92,1.06-6.34.78-12.62.52-18.69.28-2.99-.12-5.83-.23-8.69-.23l-3.55-10.02,22.28-18.05,7.09,8.76-10.47,8.49Z"/>
      <path class="cls-1" d="M44.97,18.94c.06-3.64.02-7.18-.41-10.67C44.19,5.26,43.74,2.58,43.19,0h11.49c.41,2.19.75,4.48,1.06,6.92.78,6.34.52,12.62.28,18.69-.12,2.99-.23,5.83-.23,8.69l-10.02,3.55L27.72,15.56l8.76-7.09,8.49,10.47Z"/>
      <path class="cls-1" d="M18.94,55.09c-3.64-.06-7.18-.02-10.67.41-3.01.37-5.69.81-8.27,1.37v-11.49c2.19-.41,4.48-.75,6.92-1.06,6.34-.78,12.62-.52,18.69-.28,2.99.12,5.83.23,8.69.23l3.55,10.02-22.28,18.05-7.09-8.76,10.47-8.49Z"/>
      <circle class="cls-1" cx="50" cy="50" r="8.65"/>
    </g>
  </g>
</svg>