<?xml version="1.0" encoding="UTF-8"?>
<svg id="Layer_2" data-name="Layer 2" xmlns="http://www.w3.org/2000/svg" viewBox="0 0 337.56 79.75">
  <defs>
    <style>
      .cls-1 {
        fill: #f2ece6;
      }
    </style>
  </defs>
  <g id="Layer_1-2" data-name="Layer 1">
    <g>
      <g>
        <path class="cls-1" d="M43.89,64.65c-.05,2.9-.01,5.73.33,8.51.29,2.4.65,4.54,1.09,6.6h-9.17c-.33-1.75-.6-3.57-.84-5.52-.62-5.05-.42-10.06-.22-14.91.1-2.39.18-4.65.18-6.93l7.99-2.83,14.39,17.77-6.99,5.65-6.77-8.35Z"/>
        <path class="cls-1" d="M64.65,35.86c2.9.05,5.73.01,8.51-.33,2.4-.29,4.54-.65,6.6-1.09v9.17c-1.75.33-3.57.6-5.52.84-5.05.62-10.06.42-14.91.22-2.39-.1-4.65-.18-6.93-.18l-2.83-7.99,17.77-14.39,5.65,6.99-8.35,6.77Z"/>
        <path class="cls-1" d="M35.86,15.1c.05-2.9.01-5.73-.33-8.51C35.24,4.2,34.88,2.06,34.44,0h9.17c.33,1.75.6,3.57.84,5.52.62,5.05.42,10.06.22,14.91-.1,2.39-.18,4.65-.18,6.93l-7.99,2.83-14.39-17.77,6.99-5.65,6.77,8.35Z"/>
        <path class="cls-1" d="M15.1,43.94c-2.9-.05-5.73-.01-8.51.33-2.4.29-4.54.65-6.6,1.09v-9.17c1.75-.33,3.57-.6,5.52-.84,5.05-.62,10.06-.42,14.91-.22,2.39.1,4.65.18,6.93.18l2.83,7.99-17.77,14.39-5.65-6.99,8.35-6.77Z"/>
        <circle class="cls-1" cx="39.87" cy="39.87" r="6.89"/>
      </g>
      <g>
        <path class="cls-1" d="M98.77,60.54V19.94h8.12v33.29h15.14v7.31h-23.26Z"/>
        <path class="cls-1" d="M138.97,61.3c-3.09,0-5.86-.72-8.29-2.15-2.44-1.43-4.34-3.33-5.71-5.71-1.37-2.38-2.06-5.02-2.06-7.92s.69-5.55,2.06-7.95c1.37-2.4,3.28-4.31,5.71-5.74,2.44-1.43,5.2-2.15,8.29-2.15s5.91.72,8.32,2.15c2.42,1.43,4.31,3.34,5.68,5.74,1.37,2.4,2.06,5.05,2.06,7.95s-.69,5.54-2.06,7.92c-1.37,2.38-3.27,4.28-5.68,5.71-2.42,1.43-5.19,2.15-8.32,2.15ZM138.97,54.16c1.66,0,3.11-.4,4.35-1.19,1.24-.79,2.19-1.85,2.87-3.16.68-1.31,1.01-2.75,1.01-4.29s-.34-3.04-1.01-4.35c-.68-1.31-1.63-2.37-2.87-3.16-1.24-.79-2.69-1.19-4.35-1.19s-3.11.4-4.35,1.19c-1.24.79-2.19,1.85-2.87,3.16-.68,1.31-1.01,2.77-1.01,4.35s.34,2.98,1.01,4.29c.68,1.31,1.63,2.37,2.87,3.16,1.24.79,2.69,1.19,4.35,1.19Z"/>
        <path class="cls-1" d="M172.61,61.3c-2.17,0-4.19-.41-6.06-1.22-1.88-.81-3.53-1.94-4.96-3.39-1.43-1.45-2.54-3.13-3.33-5.05-.79-1.91-1.19-3.97-1.19-6.18,0-2.94.69-5.6,2.06-7.98,1.37-2.38,3.27-4.28,5.68-5.71,2.42-1.43,5.15-2.15,8.21-2.15,2.74-.04,5.2.44,7.37,1.45,2.17,1.01,3.89,2.4,5.16,4.18l-6.03,4.93c-.7-1.04-1.59-1.88-2.7-2.49-1.1-.62-2.33-.93-3.68-.93-1.66,0-3.11.4-4.35,1.19-1.24.79-2.19,1.85-2.87,3.16-.68,1.31-1.01,2.77-1.01,4.35s.36,2.99,1.07,4.32c.72,1.33,1.7,2.4,2.96,3.19,1.26.79,2.72,1.19,4.38,1.19,1.51,0,2.78-.34,3.83-1.02,1.04-.68,1.95-1.54,2.73-2.58l5.68,4.93c-1.43,1.82-3.2,3.24-5.31,4.26-2.11,1.02-4.65,1.54-7.63,1.54Z"/>
        <path class="cls-1" d="M188.61,60.54V18.2h7.83v24.36l11.31-12.18h11.14l-14.21,14.04,14.27,16.12h-10.38l-12.12-14.33v14.33h-7.83Z"/>
        <path class="cls-1" d="M231.65,61.3c-3.09,0-5.82-.72-8.18-2.15-2.36-1.43-4.19-3.33-5.48-5.71-1.3-2.38-1.94-5.02-1.94-7.92s.68-5.56,2.03-7.98c1.35-2.42,3.2-4.34,5.54-5.77,2.34-1.43,5.02-2.15,8.03-2.15s5.67.72,7.98,2.15c2.3,1.43,4.1,3.35,5.39,5.77,1.29,2.42,1.94,5.08,1.94,7.98,0,.43-.02.87-.06,1.33-.04.46-.1.95-.17,1.45h-22.56c.43,1.78,1.28,3.23,2.58,4.35,1.29,1.12,2.93,1.68,4.9,1.68,1.7,0,3.18-.39,4.44-1.16,1.26-.77,2.23-1.74,2.93-2.9l6.09,4.58c-1.2,1.9-3,3.44-5.39,4.64-2.4,1.2-5.08,1.8-8.06,1.8ZM231.53,36.36c-1.86,0-3.44.56-4.76,1.68-1.31,1.12-2.18,2.59-2.61,4.41h14.91c-.43-1.66-1.3-3.09-2.64-4.29-1.33-1.2-2.97-1.8-4.9-1.8Z"/>
        <path class="cls-1" d="M263.72,61.3c-2.75,0-5.25-.71-7.51-2.12-2.26-1.41-4.06-3.31-5.39-5.68-1.33-2.38-2-5.02-2-7.92,0-2.17.39-4.21,1.16-6.12.77-1.91,1.84-3.6,3.19-5.05,1.35-1.45,2.93-2.59,4.73-3.42,1.8-.83,3.74-1.25,5.83-1.25,2.59,0,4.62.48,6.09,1.45,1.47.97,2.61,2.24,3.42,3.83v-16.82h7.83v42.34h-7.6v-4.93c-.81,1.7-1.96,3.07-3.45,4.12-1.49,1.04-3.59,1.57-6.29,1.57ZM265,54.22c1.74,0,3.24-.4,4.49-1.19,1.26-.79,2.23-1.85,2.93-3.16.7-1.31,1.04-2.75,1.04-4.29s-.35-3.04-1.04-4.35c-.7-1.31-1.67-2.38-2.93-3.19-1.26-.81-2.75-1.22-4.49-1.22s-3.12.4-4.38,1.19c-1.26.79-2.23,1.85-2.93,3.16-.7,1.31-1.04,2.77-1.04,4.35s.35,2.93,1.04,4.26,1.67,2.41,2.93,3.22c1.26.81,2.72,1.22,4.38,1.22Z"/>
        <path class="cls-1" d="M295.8,60.54V19.94h8.12v40.6h-8.12Z"/>
        <path class="cls-1" d="M309.14,60.54v-30.16h7.71v4.41c1.59-3.4,4.66-5.1,9.22-5.1,2.17,0,4.12.5,5.86,1.51,1.74,1.01,3.11,2.44,4.12,4.29,1.01,1.86,1.51,4.06,1.51,6.61v18.44h-7.83v-16.53c0-2.63-.6-4.53-1.8-5.71-1.2-1.18-2.77-1.77-4.7-1.77-1.66,0-3.12.59-4.38,1.77-1.26,1.18-1.89,3.08-1.89,5.71v16.53h-7.83Z"/>
      </g>
    </g>
  </g>
</svg>