<?xml version="1.0" encoding="UTF-8"?>
<svg id="Layer_2" data-name="Layer 2" xmlns="http://www.w3.org/2000/svg" viewBox="0 0 500 118.61">
  <defs>
    <style>
      .cls-1 {
        letter-spacing: 0em;
      }

      .cls-2 {
        letter-spacing: 0em;
      }

      .cls-3 {
        letter-spacing: -.06em;
      }

      .cls-4 {
        font-family: CalSans-Regular, 'Cal Sans';
        font-size: 85.06px;
      }

      .cls-5 {
        letter-spacing: -.03em;
      }

      .cls-6 {
        letter-spacing: 0em;
      }
    </style>
  </defs>
  <g id="Layer_1-2" data-name="Layer 1">
    <g>
      <g>
        <path d="M65.27,96.15c-.07,4.31-.02,8.52.49,12.65.44,3.57.96,6.75,1.62,9.81h-13.63c-.49-2.6-.89-5.32-1.26-8.21-.93-7.52-.62-14.96-.33-22.17.15-3.55.27-6.92.27-10.3l11.89-4.2,21.41,26.43-10.39,8.41-10.07-12.41Z"/>
        <path d="M96.15,53.34c4.31.07,8.52.02,12.65-.49,3.57-.44,6.75-.96,9.81-1.62v13.63c-2.6.49-5.32.89-8.21,1.26-7.52.93-14.96.62-22.17.33-3.55-.15-6.92-.27-10.3-.27l-4.2-11.89,26.43-21.41,8.41,10.39-12.41,10.07Z"/>
        <path d="M53.34,22.46c.07-4.31.02-8.52-.49-12.65C52.41,6.24,51.88,3.06,51.23,0h13.63c.49,2.6.89,5.32,1.26,8.21.93,7.52.62,14.96.33,22.17-.15,3.55-.27,6.92-.27,10.3l-11.89,4.2-21.41-26.43,10.39-8.41,10.07,12.41Z"/>
        <path d="M22.46,65.35c-4.31-.07-8.52-.02-12.65.49-3.57.44-6.75.96-9.81,1.62v-13.63c2.6-.49,5.32-.89,8.21-1.26,7.52-.93,14.96-.62,22.17-.33,3.55.15,6.92.27,10.3.27l4.2,11.89-26.43,21.41-8.41-10.39,12.41-10.07Z"/>
        <circle cx="59.3" cy="59.3" r="10.25"/>
      </g>
      <text class="cls-4" transform="translate(142.59 90.04)"><tspan class="cls-5" x="0" y="0">L</tspan><tspan class="cls-6" x="37.94" y="0">o</tspan><tspan class="cls-2" x="88.04" y="0">c</tspan><tspan class="cls-3" x="132.6" y="0">k</tspan><tspan class="cls-1" x="174.54" y="0">e</tspan><tspan class="cls-2" x="222.6" y="0">d In</tspan></text>
    </g>
  </g>
</svg>